<svg width="144" height="46" viewBox="0 0 144 46" fill="none" xmlns="http://www.w3.org/2000/svg">
<g clip-path="url(#clip0_411_2998)">
<path d="M41.917 36.915C40.1415 36.915 38.5204 36.4614 37.0537 35.5542C35.5998 34.6469 34.4355 33.4331 33.5606 31.9125C32.6986 30.3792 32.2676 28.6861 32.2676 26.8333C32.2676 25.4277 32.5185 24.1181 33.0202 22.9042C33.522 21.6775 34.2103 20.6042 35.0852 19.6842C35.9729 18.7514 37.0023 18.0231 38.173 17.4992C39.3438 16.9752 40.5918 16.7133 41.917 16.7133C43.3709 16.7133 44.7025 17.0073 45.9118 17.595C47.1341 18.17 48.1763 18.975 49.0382 20.01C49.9132 21.045 50.5628 22.2461 50.9874 23.6133C51.4248 24.9806 51.5857 26.4436 51.4699 28.0025H35.7221C35.8765 29.0886 36.2366 30.0598 36.8028 30.9158C37.3689 31.7592 38.0893 32.43 38.9643 32.9283C39.852 33.4267 40.8362 33.6823 41.917 33.695C43.0749 33.695 44.1235 33.4011 45.0627 32.8133C46.0018 32.2127 46.761 31.395 47.3399 30.36L50.64 31.1267C49.8681 32.8261 48.7037 34.2189 47.147 35.305C45.5902 36.3783 43.8469 36.915 41.917 36.915ZM35.6256 25.4725H48.2084C48.1054 24.3992 47.758 23.4217 47.1663 22.54C46.5745 21.6456 45.8218 20.93 44.9083 20.3933C43.9948 19.8567 42.9977 19.5883 41.917 19.5883C40.8362 19.5883 39.8455 19.8502 38.945 20.3742C38.0444 20.8981 37.2981 21.6073 36.7063 22.5017C36.1273 23.3833 35.7671 24.3736 35.6256 25.4725ZM54.5336 36.4167V7.66667H57.7758V36.4167H54.5336ZM62.4114 36.4167V7.66667H65.6536V36.4167H62.4114ZM78.5923 36.915C76.8168 36.915 75.1957 36.4614 73.729 35.5542C72.2751 34.6469 71.1107 33.4331 70.2359 31.9125C69.3738 30.3792 68.9429 28.6861 68.9429 26.8333C68.9429 25.4277 69.1938 24.1181 69.6955 22.9042C70.1973 21.6775 70.8856 20.6042 71.7605 19.6842C72.6483 18.7514 73.6774 18.0231 74.8483 17.4992C76.0191 16.9752 77.267 16.7133 78.5923 16.7133C80.3678 16.7133 81.9824 17.1669 83.4363 18.0742C84.903 18.9814 86.0674 20.2017 86.9294 21.735C87.8043 23.2683 88.2417 24.9677 88.2417 26.8333C88.2417 28.2261 87.9908 29.5294 87.489 30.7433C86.9873 31.9573 86.2925 33.0306 85.4048 33.9633C84.5298 34.8833 83.507 35.6052 82.3363 36.1292C81.1783 36.6531 79.9302 36.915 78.5923 36.915ZM78.5923 33.695C79.8016 33.695 80.8888 33.3819 81.8538 32.7558C82.8315 32.1169 83.5972 31.28 84.1503 30.245C84.7163 29.1973 84.9995 28.06 84.9995 26.8333C84.9995 25.5811 84.71 24.4311 84.131 23.3833C83.5649 22.3356 82.7994 21.4986 81.8345 20.8725C80.8695 20.2464 79.7888 19.9333 78.5923 19.9333C77.3828 19.9333 76.2957 20.2527 75.3308 20.8917C74.3658 21.5177 73.6002 22.3548 73.0342 23.4025C72.4681 24.4502 72.1851 25.5939 72.1851 26.8333C72.1851 28.1111 72.4746 29.2739 73.0535 30.3217C73.6325 31.3567 74.4108 32.1808 75.3887 32.7942C76.3664 33.3948 77.4344 33.695 78.5923 33.695Z" fill="#082421"/>
<path d="M0 11.2087C0 9.51499 1.38246 8.142 3.08781 8.142H5.65069C7.35604 8.142 8.7385 9.51499 8.7385 11.2087V34.7913C8.7385 36.4851 7.35604 37.858 5.65069 37.858H0V11.2087Z" fill="#082421"/>
<path d="M9.88086 11.2087C9.88086 9.51499 11.2633 8.142 12.9687 8.142H18.6194V24.84C18.6194 26.5337 17.2369 27.9067 15.5316 27.9067H12.9687C11.2633 27.9067 9.88086 26.5337 9.88086 24.84V11.2087Z" fill="#082421"/>
<path d="M19.7622 8.142H25.4129C27.1183 8.142 28.5007 9.51499 28.5007 11.2087V34.7913C28.5007 36.4851 27.1183 37.858 25.4129 37.858H22.85C21.1446 37.858 19.7622 36.4851 19.7622 34.7913V8.142Z" fill="#082421"/>
<path d="M134.189 20.378H101.813C96.3942 20.378 92.0015 24.7407 92.0015 30.1223C92.0015 35.504 96.3942 39.8667 101.813 39.8667H134.189C139.607 39.8667 144 35.504 144 30.1223C144 24.7407 139.607 20.378 134.189 20.378Z" fill="#082421"/>
<path d="M98.1152 35.4967V27.83H99.7209V28.6427C99.9885 28.3257 100.315 28.0753 100.701 27.8913C101.092 27.7073 101.514 27.6153 101.967 27.6153C102.518 27.6153 103.025 27.7483 103.488 28.014C103.951 28.2747 104.319 28.6223 104.592 29.0567C104.865 28.6223 105.228 28.2747 105.68 28.014C106.138 27.7483 106.643 27.6153 107.193 27.6153C107.765 27.6153 108.284 27.7533 108.753 28.0293C109.221 28.3053 109.594 28.6759 109.872 29.141C110.15 29.6061 110.289 30.1223 110.289 30.6897V35.4967H108.683V31.096C108.683 30.7587 108.601 30.4494 108.436 30.1683C108.272 29.8873 108.05 29.6597 107.772 29.486C107.494 29.3123 107.186 29.2253 106.846 29.2253C106.506 29.2253 106.198 29.3071 105.92 29.4707C105.642 29.6343 105.421 29.8566 105.256 30.1377C105.091 30.4187 105.009 30.7383 105.009 31.096V35.4967H103.403V31.096C103.403 30.7383 103.321 30.4187 103.156 30.1377C102.991 29.8566 102.767 29.6343 102.484 29.4707C102.207 29.3071 101.898 29.2253 101.558 29.2253C101.224 29.2253 100.915 29.3123 100.632 29.486C100.354 29.6597 100.133 29.8873 99.9679 30.1683C99.8032 30.4494 99.7209 30.7587 99.7209 31.096V35.4967H98.1152ZM111.835 27.83H113.441V35.4967H111.835V27.83ZM112.654 26.7183C112.407 26.7183 112.201 26.6391 112.036 26.4807C111.872 26.3223 111.789 26.1229 111.789 25.8827C111.789 25.6476 111.872 25.4507 112.036 25.2923C112.201 25.1287 112.404 25.047 112.646 25.047C112.883 25.047 113.084 25.1287 113.248 25.2923C113.413 25.4507 113.495 25.6476 113.495 25.8827C113.495 26.1229 113.413 26.3223 113.248 26.4807C113.089 26.6391 112.891 26.7183 112.654 26.7183ZM122.175 30.6897V35.4967H120.57V31.0807C120.57 30.7383 120.485 30.4264 120.315 30.1453C120.15 29.8643 119.926 29.6419 119.643 29.4783C119.366 29.3097 119.052 29.2253 118.702 29.2253C118.362 29.2253 118.051 29.3097 117.768 29.4783C117.485 29.6419 117.258 29.8643 117.088 30.1453C116.918 30.4264 116.834 30.7383 116.834 31.0807V35.4967H115.228V27.83H116.834V28.6427C117.101 28.3257 117.431 28.0753 117.822 27.8913C118.213 27.7073 118.635 27.6153 119.088 27.6153C119.659 27.6153 120.179 27.7533 120.647 28.0293C121.115 28.3053 121.486 28.6759 121.759 29.141C122.036 29.6061 122.175 30.1223 122.175 30.6897ZM129.579 23.9967H131.185V35.4967H129.579V34.3697C129.327 34.7683 128.998 35.0903 128.591 35.3357C128.184 35.5759 127.708 35.696 127.163 35.696C126.602 35.696 126.077 35.5913 125.588 35.3817C125.099 35.1721 124.667 34.8833 124.291 34.5153C123.921 34.1423 123.63 33.7129 123.419 33.2273C123.208 32.7417 123.102 32.2204 123.102 31.6633C123.102 31.1063 123.208 30.5849 123.419 30.0993C123.63 29.6087 123.921 29.1793 124.291 28.8113C124.667 28.4383 125.099 28.1469 125.588 27.9373C126.077 27.7277 126.602 27.623 127.163 27.623C127.708 27.623 128.184 27.7457 128.591 27.991C128.998 28.2313 129.327 28.5481 129.579 28.9417V23.9967ZM127.178 34.155C127.631 34.155 128.027 34.0451 128.367 33.8253C128.707 33.6004 128.969 33.2989 129.155 32.9207C129.345 32.5424 129.44 32.1233 129.44 31.6633C129.44 31.1983 129.345 30.7766 129.155 30.3983C128.964 30.0201 128.699 29.7211 128.359 29.5013C128.025 29.2764 127.631 29.164 127.178 29.164C126.731 29.164 126.321 29.2764 125.951 29.5013C125.585 29.7263 125.292 30.0277 125.071 30.406C124.855 30.7843 124.747 31.2033 124.747 31.6633C124.747 32.1284 124.857 32.5501 125.079 32.9283C125.305 33.3014 125.601 33.6004 125.966 33.8253C126.337 34.0451 126.741 34.155 127.178 34.155ZM135.35 35.6423C134.943 35.6167 134.547 35.535 134.161 35.397C133.775 35.259 133.435 35.0724 133.142 34.8373C132.854 34.5971 132.638 34.316 132.494 33.994L133.86 33.4113C133.927 33.5493 134.043 33.6847 134.207 33.8177C134.377 33.9506 134.575 34.0604 134.802 34.1473C135.028 34.2291 135.265 34.27 135.512 34.27C135.754 34.27 135.978 34.2367 136.184 34.1703C136.395 34.0987 136.567 33.9914 136.701 33.8483C136.835 33.7053 136.902 33.534 136.902 33.3347C136.902 33.1097 136.824 32.936 136.67 32.8133C136.521 32.6856 136.333 32.5884 136.106 32.522C135.88 32.4556 135.654 32.3917 135.427 32.3303C134.923 32.2179 134.46 32.0646 134.038 31.8703C133.621 31.671 133.289 31.418 133.042 31.1113C132.795 30.7996 132.671 30.4187 132.671 29.969C132.671 29.4783 132.805 29.0541 133.073 28.6963C133.34 28.3334 133.69 28.0549 134.122 27.8607C134.56 27.6664 135.026 27.5693 135.52 27.5693C136.137 27.5693 136.703 27.6997 137.218 27.9603C137.733 28.221 138.126 28.5787 138.399 29.0337L137.125 29.785C137.048 29.6317 136.932 29.4937 136.778 29.371C136.624 29.2483 136.449 29.1513 136.253 29.0797C136.057 29.003 135.854 28.9596 135.643 28.9493C135.381 28.9391 135.136 28.9697 134.91 29.0413C134.689 29.1077 134.511 29.2151 134.377 29.3633C134.243 29.5116 134.177 29.7007 134.177 29.9307C134.177 30.1556 134.256 30.3243 134.416 30.4367C134.575 30.544 134.776 30.6309 135.018 30.6973C135.265 30.7637 135.517 30.8379 135.774 30.9197C136.233 31.0627 136.662 31.2391 137.064 31.4487C137.465 31.6531 137.789 31.9061 138.036 32.2077C138.283 32.5093 138.402 32.8773 138.391 33.3117C138.391 33.7921 138.245 34.2137 137.951 34.5767C137.663 34.9396 137.287 35.2156 136.824 35.4047C136.361 35.5937 135.87 35.673 135.35 35.6423Z" fill="white"/>
</g>
<defs>
<clipPath id="clip0_411_2998">
<rect width="144" height="46" fill="white"/>
</clipPath>
</defs>
</svg>
