<svg width="98" height="98" viewBox="0 0 98 98" fill="none" xmlns="http://www.w3.org/2000/svg">
<mask id="mask0_411_2871" style="mask-type:luminance" maskUnits="userSpaceOnUse" x="0" y="0" width="98" height="98">
<path d="M0 0H97.8078V97.8078H0V0Z" fill="white"/>
</mask>
<g mask="url(#mask0_411_2871)">
<mask id="mask1_411_2871" style="mask-type:luminance" maskUnits="userSpaceOnUse" x="-1" y="0" width="99" height="98">
<path d="M97.9038 0H-0.0961914V97.8078H97.9038V0Z" fill="white"/>
</mask>
<g mask="url(#mask1_411_2871)">
<mask id="mask2_411_2871" style="mask-type:luminance" maskUnits="userSpaceOnUse" x="0" y="0" width="98" height="98">
<path d="M0 0H97.7598V97.7598H0V0Z" fill="white"/>
</mask>
<g mask="url(#mask2_411_2871)">
<mask id="mask3_411_2871" style="mask-type:luminance" maskUnits="userSpaceOnUse" x="0" y="0" width="98" height="98">
<path d="M48.8799 0C21.8841 0 0 21.8841 0 48.8799C0 75.8757 21.8841 97.7598 48.8799 97.7598C75.8757 97.7598 97.7598 75.8757 97.7598 48.8799C97.7598 21.8841 75.8757 0 48.8799 0Z" fill="white"/>
</mask>
<g mask="url(#mask3_411_2871)">
<mask id="mask4_411_2871" style="mask-type:luminance" maskUnits="userSpaceOnUse" x="-1" y="0" width="99" height="98">
<path d="M97.9038 0H-0.0961914V97.8078H97.9038V0Z" fill="white"/>
</mask>
<g mask="url(#mask4_411_2871)">
<mask id="mask5_411_2871" style="mask-type:luminance" maskUnits="userSpaceOnUse" x="0" y="0" width="98" height="98">
<path d="M0 0H97.7598V97.7598H0V0Z" fill="white"/>
</mask>
<g mask="url(#mask5_411_2871)">
<mask id="mask6_411_2871" style="mask-type:luminance" maskUnits="userSpaceOnUse" x="0" y="0" width="98" height="98">
<path d="M48.8799 0C21.8841 0 0 21.8841 0 48.8799C0 75.8757 21.8841 97.7598 48.8799 97.7598C75.8757 97.7598 97.7598 75.8757 97.7598 48.8799C97.7598 21.8841 75.8757 0 48.8799 0Z" fill="white"/>
</mask>
<g mask="url(#mask6_411_2871)">
<path d="M0 0H97.7598V97.7598H0V0Z" fill="#F9E141"/>
</g>
</g>
</g>
</g>
</g>
<mask id="mask7_411_2871" style="mask-type:luminance" maskUnits="userSpaceOnUse" x="26" y="32" width="15" height="27">
<path d="M26.3936 32.6764H40.0187V58.3827H26.3936V32.6764Z" fill="white"/>
</mask>
<g mask="url(#mask7_411_2871)">
<mask id="mask8_411_2871" style="mask-type:luminance" maskUnits="userSpaceOnUse" x="26" y="32" width="15" height="27">
<path d="M33.2061 32.6764C35.0128 32.6764 36.746 33.394 38.0235 34.6716C39.3011 35.9491 40.0187 37.6823 40.0187 39.489V51.5236C40.0187 53.3303 39.3011 55.0627 38.0235 56.3402C36.746 57.6178 35.0128 58.3354 33.2061 58.3354C31.3994 58.3354 29.6662 57.6178 28.3887 56.3402C27.1111 55.0627 26.3936 53.3303 26.3936 51.5236V39.489C26.3936 37.6823 27.1111 35.9491 28.3887 34.6716C29.6662 33.394 31.3994 32.6764 33.2061 32.6764Z" fill="white"/>
</mask>
<g mask="url(#mask8_411_2871)">
<mask id="mask9_411_2871" style="mask-type:luminance" maskUnits="userSpaceOnUse" x="26" y="32" width="15" height="27">
<path d="M40.0643 32.6667H26.229V58.4157H40.0643V32.6667Z" fill="white"/>
</mask>
<g mask="url(#mask9_411_2871)">
<mask id="mask10_411_2871" style="mask-type:luminance" maskUnits="userSpaceOnUse" x="26" y="32" width="15" height="27">
<path d="M26.3936 32.6764H40.0187V58.3624H26.3936V32.6764Z" fill="white"/>
</mask>
<g mask="url(#mask10_411_2871)">
<mask id="mask11_411_2871" style="mask-type:luminance" maskUnits="userSpaceOnUse" x="26" y="32" width="15" height="27">
<path d="M33.2061 32.6764C35.0128 32.6764 36.746 33.394 38.0235 34.6716C39.3011 35.9491 40.0187 37.6823 40.0187 39.489V51.5236C40.0187 53.3303 39.3011 55.0627 38.0235 56.3402C36.746 57.6178 35.0128 58.3354 33.2061 58.3354C31.3994 58.3354 29.6662 57.6178 28.3887 56.3402C27.1111 55.0627 26.3936 53.3303 26.3936 51.5236V39.489C26.3936 37.6823 27.1111 35.9491 28.3887 34.6716C29.6662 33.394 31.3994 32.6764 33.2061 32.6764Z" fill="white"/>
</mask>
<g mask="url(#mask11_411_2871)">
<path d="M26.3936 32.6764H40.0187V58.3294H26.3936V32.6764Z" fill="#031C16"/>
</g>
</g>
</g>
</g>
</g>
<mask id="mask12_411_2871" style="mask-type:luminance" maskUnits="userSpaceOnUse" x="30" y="36" width="7" height="7">
<path d="M30.1846 36.5488H36.2285V42.592H30.1846V36.5488Z" fill="white"/>
</mask>
<g mask="url(#mask12_411_2871)">
<mask id="mask13_411_2871" style="mask-type:luminance" maskUnits="userSpaceOnUse" x="30" y="36" width="7" height="7">
<path d="M33.2065 36.5488C31.5379 36.5488 30.1846 37.9014 30.1846 39.5708C30.1846 41.2394 31.5379 42.592 33.2065 42.592C34.8751 42.592 36.2285 41.2394 36.2285 39.5708C36.2285 37.9014 34.8751 36.5488 33.2065 36.5488Z" fill="white"/>
</mask>
<g mask="url(#mask13_411_2871)">
<mask id="mask14_411_2871" style="mask-type:luminance" maskUnits="userSpaceOnUse" x="30" y="36" width="7" height="7">
<path d="M36.4139 36.5098H30.0728V42.6588H36.4139V36.5098Z" fill="white"/>
</mask>
<g mask="url(#mask14_411_2871)">
<mask id="mask15_411_2871" style="mask-type:luminance" maskUnits="userSpaceOnUse" x="30" y="36" width="7" height="7">
<path d="M30.1846 36.5488H36.2285V42.592H30.1846V36.5488Z" fill="white"/>
</mask>
<g mask="url(#mask15_411_2871)">
<mask id="mask16_411_2871" style="mask-type:luminance" maskUnits="userSpaceOnUse" x="30" y="36" width="7" height="7">
<path d="M33.2065 36.5488C31.5379 36.5488 30.1846 37.9014 30.1846 39.5708C30.1846 41.2394 31.5379 42.592 33.2065 42.592C34.8751 42.592 36.2285 41.2394 36.2285 39.5708C36.2285 37.9014 34.8751 36.5488 33.2065 36.5488Z" fill="white"/>
</mask>
<g mask="url(#mask16_411_2871)">
<path d="M30.1846 36.5488H36.2285V42.592H30.1846V36.5488Z" fill="#FCFCFC"/>
</g>
</g>
</g>
</g>
</g>
<mask id="mask17_411_2871" style="mask-type:luminance" maskUnits="userSpaceOnUse" x="57" y="32" width="15" height="27">
<path d="M57.7407 32.6764H71.3651V58.3827H57.7407V32.6764Z" fill="white"/>
</mask>
<g mask="url(#mask17_411_2871)">
<mask id="mask18_411_2871" style="mask-type:luminance" maskUnits="userSpaceOnUse" x="57" y="32" width="15" height="27">
<path d="M64.5533 32.6764C66.36 32.6764 68.0924 33.394 69.37 34.6716C70.6475 35.9491 71.3651 37.6823 71.3651 39.489V51.5236C71.3651 53.3303 70.6475 55.0627 69.37 56.3402C68.0924 57.6178 66.36 58.3354 64.5533 58.3354C62.7466 58.3354 61.0134 57.6178 59.7359 56.3402C58.4583 55.0627 57.7407 53.3303 57.7407 51.5236V39.489C57.7407 37.6823 58.4583 35.9491 59.7359 34.6716C61.0134 33.394 62.7466 32.6764 64.5533 32.6764Z" fill="white"/>
</mask>
<g mask="url(#mask18_411_2871)">
<mask id="mask19_411_2871" style="mask-type:luminance" maskUnits="userSpaceOnUse" x="57" y="32" width="15" height="27">
<path d="M71.3861 32.6667H57.5508V58.4157H71.3861V32.6667Z" fill="white"/>
</mask>
<g mask="url(#mask19_411_2871)">
<mask id="mask20_411_2871" style="mask-type:luminance" maskUnits="userSpaceOnUse" x="57" y="32" width="15" height="27">
<path d="M57.7407 32.6764H71.3651V58.3624H57.7407V32.6764Z" fill="white"/>
</mask>
<g mask="url(#mask20_411_2871)">
<mask id="mask21_411_2871" style="mask-type:luminance" maskUnits="userSpaceOnUse" x="57" y="32" width="15" height="27">
<path d="M64.5533 32.6764C66.36 32.6764 68.0924 33.394 69.37 34.6716C70.6475 35.9491 71.3651 37.6823 71.3651 39.489V51.5236C71.3651 53.3303 70.6475 55.0627 69.37 56.3402C68.0924 57.6178 66.36 58.3354 64.5533 58.3354C62.7466 58.3354 61.0134 57.6178 59.7359 56.3402C58.4583 55.0627 57.7407 53.3303 57.7407 51.5236V39.489C57.7407 37.6823 58.4583 35.9491 59.7359 34.6716C61.0134 33.394 62.7466 32.6764 64.5533 32.6764Z" fill="white"/>
</mask>
<g mask="url(#mask21_411_2871)">
<path d="M57.7407 32.6764H71.3651V58.3294H57.7407V32.6764Z" fill="#031C16"/>
</g>
</g>
</g>
</g>
</g>
<mask id="mask22_411_2871" style="mask-type:luminance" maskUnits="userSpaceOnUse" x="61" y="36" width="7" height="7">
<path d="M61.5312 36.5488H67.5744V42.592H61.5312V36.5488Z" fill="white"/>
</mask>
<g mask="url(#mask22_411_2871)">
<mask id="mask23_411_2871" style="mask-type:luminance" maskUnits="userSpaceOnUse" x="61" y="36" width="7" height="7">
<path d="M64.5532 36.5488C62.8839 36.5488 61.5312 37.9014 61.5312 39.5708C61.5312 41.2394 62.8839 42.592 64.5532 42.592C66.2218 42.592 67.5744 41.2394 67.5744 39.5708C67.5744 37.9014 66.2218 36.5488 64.5532 36.5488Z" fill="white"/>
</mask>
<g mask="url(#mask23_411_2871)">
<mask id="mask24_411_2871" style="mask-type:luminance" maskUnits="userSpaceOnUse" x="61" y="36" width="7" height="7">
<path d="M67.7352 36.5098H61.394V42.6588H67.7352V36.5098Z" fill="white"/>
</mask>
<g mask="url(#mask24_411_2871)">
<mask id="mask25_411_2871" style="mask-type:luminance" maskUnits="userSpaceOnUse" x="61" y="36" width="7" height="7">
<path d="M61.5312 36.5488H67.5744V42.592H61.5312V36.5488Z" fill="white"/>
</mask>
<g mask="url(#mask25_411_2871)">
<mask id="mask26_411_2871" style="mask-type:luminance" maskUnits="userSpaceOnUse" x="61" y="36" width="7" height="7">
<path d="M64.5532 36.5488C62.8839 36.5488 61.5312 37.9014 61.5312 39.5708C61.5312 41.2394 62.8839 42.592 64.5532 42.592C66.2218 42.592 67.5744 41.2394 67.5744 39.5708C67.5744 37.9014 66.2218 36.5488 64.5532 36.5488Z" fill="white"/>
</mask>
<g mask="url(#mask26_411_2871)">
<path d="M61.5312 36.5488H67.5744V42.592H61.5312V36.5488Z" fill="#FCFCFC"/>
</g>
</g>
</g>
</g>
</g>
</g>
</g>
</svg>
